<?xml version="1.0" encoding="utf-8"?>
<!-- Generator: Adobe Illustrator 26.0.0, SVG Export Plug-In . SVG Version: 6.00 Build 0)  -->
<svg version="1.1" id="Layer_1" xmlns="http://www.w3.org/2000/svg" xmlns:xlink="http://www.w3.org/1999/xlink" x="0px" y="0px"
	 viewBox="0 0 469 138.2" style="enable-background:new 0 0 469 138.2;" xml:space="preserve">
<style type="text/css">
	.st0{fill:#7320B9;}
	.st1{fill:#231F20;}
</style>
<g id="XMLID_2_">
</g>
<g id="XMLID_66_">
</g>
<g id="XMLID_88_">
</g>
<g id="XMLID_89_">
</g>
<g id="XMLID_90_">
</g>
<g id="XMLID_91_">
</g>
<g id="XMLID_92_">
</g>
<g>
	<g>
		<g>
			<g>
				<g>
					<g>
						<path class="st0" d="M198.1,6.8C181.5,14.6,177,29.5,177,29.5c4.9-1.8,9.6-3.3,14.2-4.5L198.1,6.8z"/>
					</g>
					<g>
						<path class="st0" d="M204.4,4.4l-7.2,19c11.9-2.8,22.9-4,33-4.3V1C227.2,1,209.1,3,204.4,4.4z"/>
					</g>
				</g>
				<g>
					<g>
						<path class="st0" d="M276.4,24.9c7.3,2.1,12.1,4.1,13.7,4.6c-5.2-10.6-12.6-17-19.9-21L276.4,24.9z"/>
					</g>
					<g>
						<path class="st0" d="M263.6,5.5c-9.8-3.6-22-4.5-27.8-4.5v18.1c13.8,0.1,25.5,2,34.6,4.2L263.6,5.5z"/>
					</g>
				</g>
			</g>
			<g>
				<path class="st0" d="M177.5,86c0,0,36.6,42.4,56,42.4c5.7,0,24.2-3.4,56-42.4c-3.7,12.4-32.9,50.4-56,50.4
					C227.6,136.4,202.4,133.2,177.5,86z"/>
			</g>
		</g>
	</g>
	<g>
		<path class="st1" d="M4.7,45.1v14.1h17.6v2.2H4.7v14.6H2.3v-33h22.1v2.2H4.7z"/>
		<path class="st1" d="M41.6,42.9H44v30.9h19v2.2H41.6V42.9z"/>
		<path class="st1" d="M78.6,42.9H81v33h-2.4V42.9z"/>
		<path class="st1" d="M125.6,59.6h2.3v12.4c-3,2.8-7.3,4.2-11.8,4.2c-10,0-17.3-7.1-17.3-16.8c0-9.6,7.3-16.8,17.3-16.8
			c4.8,0,9,1.5,11.9,4.5l-1.5,1.6c-2.9-2.8-6.3-3.9-10.3-3.9c-8.6,0-15,6.2-15,14.5c0,8.3,6.4,14.5,15,14.5c3.5,0,6.7-0.8,9.4-3
			V59.6z"/>
		<path class="st1" d="M174.8,42.9v33h-2.4V60.2h-22.1v15.7h-2.4v-33h2.4v15.2h22.1V42.9H174.8z"/>
		<path class="st1" d="M202,45.1h-11.9v-2.2h26.2v2.2h-11.9v30.9H202V45.1z"/>
		<path class="st1" d="M282.4,42.9l-10.6,33h-11.9l-5.3-17.7L249,75.9H237l-10.6-33h11.5l5.8,18.8l6.1-18.8H260l5.8,19l6.1-19H282.4
			z"/>
		<path class="st1" d="M292.5,59.4c0-10,7.9-17.3,18.6-17.3c10.8,0,18.6,7.3,18.6,17.3c0,10-7.9,17.3-18.6,17.3
			C300.4,76.7,292.5,69.4,292.5,59.4z M318.6,59.4c0-5.1-3.3-8.3-7.4-8.3c-4.1,0-7.4,3.1-7.4,8.3c0,5.1,3.3,8.3,7.4,8.3
			C315.3,67.7,318.6,64.6,318.6,59.4z"/>
		<path class="st1" d="M357.4,67.6h-3v8.3h-11.1v-33h15.9c9.2,0,15.1,4.8,15.1,12.5c0,4.8-2.3,8.4-6.2,10.4l6.9,10.2h-11.9
			L357.4,67.6z M358.5,51.5h-4.1v7.7h4.1c3.1,0,4.5-1.5,4.5-3.9C363,53,361.5,51.5,358.5,51.5z"/>
		<path class="st1" d="M401.3,65l-2.5,2.8v8.2h-10.9v-33h10.9v12l10.9-12h12.1l-13.2,14.5l13.9,18.5h-12.9L401.3,65z"/>
		<path class="st1" d="M430.6,73.3l3.6-8.1c3.1,1.8,7.3,3,10.9,3c3.2,0,4.3-0.7,4.3-1.8c0-4.2-18.3-0.8-18.3-13.1
			c0-6.1,5.1-11.1,15.4-11.1c4.4,0,9,0.9,12.5,2.9l-3.4,8.1c-3.3-1.7-6.3-2.5-9.2-2.5c-3.3,0-4.3,0.9-4.3,2.1
			c0,4,18.3,0.7,18.3,12.8c0,6-5.1,11.1-15.4,11.1C439.5,76.7,433.9,75.3,430.6,73.3z"/>
	</g>
</g>
</svg>
