<?xml version="1.0" encoding="utf-8"?>
<!-- Generator: Adobe Illustrator 26.0.0, SVG Export Plug-In . SVG Version: 6.00 Build 0)  -->
<svg version="1.1" id="Layer_1" xmlns="http://www.w3.org/2000/svg" xmlns:xlink="http://www.w3.org/1999/xlink" x="0px" y="0px"
	 viewBox="0 0 469.1 138.2" style="enable-background:new 0 0 469.1 138.2;" xml:space="preserve">
<style type="text/css">
	.st0{fill:#FFFFFF;}
</style>
<g id="XMLID_2_">
</g>
<g id="XMLID_66_">
</g>
<g id="XMLID_88_">
</g>
<g id="XMLID_89_">
</g>
<g id="XMLID_90_">
</g>
<g id="XMLID_91_">
</g>
<g id="XMLID_92_">
</g>
<g>
	<g>
		<g>
			<g>
				<g>
					<path class="st0" d="M198.8,6.8c-16.7,7.8-21.2,22.8-21.2,22.8c4.9-1.8,9.7-3.3,14.3-4.5L198.8,6.8z"/>
				</g>
				<g>
					<path class="st0" d="M205.2,4.4L198,23.6c11.9-2.8,23.1-4.1,33.2-4.3V1C228.1,1,209.8,3,205.2,4.4z"/>
				</g>
			</g>
			<g>
				<g>
					<path class="st0" d="M277.4,25c7.4,2.1,12.1,4.1,13.8,4.6c-5.3-10.6-12.7-17.1-20-21.1L277.4,25z"/>
				</g>
				<g>
					<path class="st0" d="M264.6,5.5c-9.9-3.7-22.1-4.5-28-4.5v18.2c13.9,0.1,25.7,2,34.7,4.2L264.6,5.5z"/>
				</g>
			</g>
		</g>
		<g>
			<path class="st0" d="M178.1,86.4c0,0,36.8,42.6,56.3,42.6c5.8,0,24.3-3.4,56.3-42.6c-3.7,12.5-33,50.6-56.3,50.6
				C228.5,137.1,203.1,133.9,178.1,86.4z"/>
		</g>
	</g>
	<g>
		<path class="st0" d="M4.5,45.3v14.2h17.7v2.2H4.5v14.7H2.1V43.1h22.2v2.2H4.5z"/>
		<path class="st0" d="M41.5,43.1h2.4v31H63v2.2H41.5V43.1z"/>
		<path class="st0" d="M78.7,43.1h2.4v33.2h-2.4V43.1z"/>
		<path class="st0" d="M125.9,59.9h2.3v12.4c-3,2.8-7.3,4.3-11.9,4.3c-10,0-17.4-7.2-17.4-16.8s7.4-16.8,17.4-16.8
			c4.8,0,9,1.5,12,4.6l-1.5,1.6c-2.9-2.8-6.4-3.9-10.4-3.9c-8.6,0-15,6.3-15,14.6c0,8.3,6.4,14.6,15,14.6c3.5,0,6.7-0.9,9.4-3V59.9z
			"/>
		<path class="st0" d="M175.4,43.1v33.2h-2.4V60.5h-22.2v15.8h-2.4V43.1h2.4v15.3h22.2V43.1H175.4z"/>
		<path class="st0" d="M202.8,45.3h-12v-2.2h26.3v2.2h-12v31h-2.4V45.3z"/>
		<path class="st0" d="M283.5,43.1l-10.6,33.2h-12l-5.4-17.7l-5.6,17.7h-12l-10.6-33.2h11.5l5.8,18.9l6.1-18.9H261l5.8,19.1
			l6.1-19.1H283.5z"/>
		<path class="st0" d="M293.7,59.7c0-10.1,7.9-17.4,18.7-17.4c10.8,0,18.7,7.3,18.7,17.4s-7.9,17.4-18.7,17.4
			C301.6,77.1,293.7,69.8,293.7,59.7z M319.9,59.7c0-5.2-3.3-8.3-7.4-8.3c-4.1,0-7.4,3.1-7.4,8.3s3.3,8.3,7.4,8.3
			C316.5,68,319.9,64.9,319.9,59.7z"/>
		<path class="st0" d="M358.9,68h-3v8.3h-11.2V43.1h16c9.2,0,15.1,4.8,15.1,12.5c0,4.8-2.3,8.4-6.3,10.4l7,10.2h-12L358.9,68z
			 M360,51.8h-4.1v7.8h4.1c3.1,0,4.6-1.5,4.6-3.9C364.5,53.2,363.1,51.8,360,51.8z"/>
		<path class="st0" d="M403,65.3l-2.5,2.8v8.2h-11V43.1h11v12l10.9-12h12.2l-13.3,14.6l13.9,18.6h-12.9L403,65.3z"/>
		<path class="st0" d="M432.5,73.7l3.6-8.2c3.1,1.8,7.3,3,11,3c3.2,0,4.3-0.7,4.3-1.8c0-4.2-18.4-0.8-18.4-13.2
			c0-6.2,5.2-11.2,15.5-11.2c4.5,0,9.1,0.9,12.5,2.9l-3.4,8.1c-3.3-1.7-6.4-2.5-9.2-2.5c-3.3,0-4.3,0.9-4.3,2.1
			c0,4,18.4,0.7,18.4,12.9c0,6.1-5.2,11.2-15.5,11.2C441.4,77.1,435.8,75.7,432.5,73.7z"/>
	</g>
</g>
</svg>
